<svg version="1.2" xmlns="http://www.w3.org/2000/svg" viewBox="0 0 1200 1200" width="1200" height="1200">
  <title>logo-round-new-svg</title>
  <style>
    .s0 {
      fill: #121312
    }

    .s1 {
      opacity: 1;
      fill: #12ff80
    }
  </style>
  <g id="Layer 1">
    <path id="Layer" fill-rule="evenodd" class="s0"
      d="m0 600c0-331.4 268.6-600 600-600 331.4 0 600 268.6 600 600 0 331.4-268.6 600-600 600-331.4 0-600-268.6-600-600z" />
    <g id="Layer">
      <path id="Layer" fill-rule="evenodd" class="s1"
        d="m421.7 178.9q177.8-0.1 355.6 0.4 33.1 3.4 41.9 35.2 1.5 41.2 1.5 82.4 6.6 28.7 35.2 36 40.5 1.4 80.9 1.5 33.8 7.4 37.5 42 0.7 73.3 0 146.7-4.5 32.9-36.7 40.5-50.3 0.7-100.6 0-29.7-7-36.7-36.7 0-68.9-1.5-137.7-4.8-21.6-24.6-31.4-7.3-2.9-15.1-3.8-159.6-0.7-319.2 0-29.8 3.7-39 32.2-1 4.1-1.5 8.3-0.3 66.2-0.7 132.4-7 29.7-36.7 36.7-50.3 0.7-100.6 0-32.2-7.6-36.7-40.5-0.7-73.4 0-146.7 3.7-34.6 37.5-42 40.4-0.1 80.9-1.5 28.6-7.3 35.2-36 0.3-38.9 0.7-77.9 7.1-35.2 42.7-40.1z" />
    </g>
    <g id="Layer">
      <path id="Layer" fill-rule="evenodd" class="s1"
        d="m554.9 503.4q47.3-0.5 94.5 1.2 31.5 7.6 37.5 39.7 0.7 46.9 0 93.8-6.4 32.8-39 40.4-48.8 0.8-97.6 0-31.4-8-38.2-39.7-0.7-47.6 0-95.3 7.7-34.7 42.8-40.1z" />
    </g>
    <g id="Layer">
      <path id="Layer" fill-rule="evenodd" class="s1"
        d="m264.4 633.5q48.8-0.2 97.6 0.4 31.5 6.1 38.2 37.4 0 68.9 1.5 137.7 8.5 30.4 39.7 35.2 171.3 0.4 342.7 0.7 30.8 6.7 37.4 37.5 0.8 49.5 0 99.1-7.9 34.8-43.5 38.2-177 0.7-354 0-33.2-2.6-42.7-34.5-1.5-41.5-1.5-83.2-5.6-29-34.4-35.9-40.9-1.4-81.7-1.5-31.9-6.9-37.5-38.9-1.1-79.1 0.8-158.1 8.5-28.4 37.4-34.1z" />
    </g>
  </g>
</svg>