<?xml version="1.0" encoding="UTF-8"?>
<!DOCTYPE svg PUBLIC "-//W3C//DTD SVG 1.1//EN" "http://www.w3.org/Graphics/SVG/1.1/DTD/svg11.dtd">
<svg xmlns="http://www.w3.org/2000/svg" version="1.1" width="384" height="384" viewBox="0 0 1200 1200"
  style="shape-rendering:geometricPrecision; text-rendering:geometricPrecision; image-rendering:optimizeQuality; fill-rule:evenodd; clip-rule:evenodd"
  xmlns:xlink="http://www.w3.org/1999/xlink">
  <g>
    <path style="opacity:0.998" fill="currentColor"
      d="M 364.5,43.5 C 521.167,43.3333 677.834,43.5 834.5,44C 863.692,46.9799 882.192,62.4799 890,90.5C 891.294,126.8 891.961,163.133 892,199.5C 897.748,224.794 913.248,240.627 938.5,247C 974.14,248.279 1009.81,248.946 1045.5,249C 1075.22,255.556 1091.72,274.056 1095,304.5C 1095.67,369.167 1095.67,433.833 1095,498.5C 1091,527.491 1074.84,545.325 1046.5,552C 1002.17,552.667 957.833,552.667 913.5,552C 887.346,545.846 871.179,529.679 865,503.5C 864.973,442.806 864.307,382.139 863,321.5C 858.749,302.49 847.915,288.657 830.5,280C 824.066,277.391 817.399,275.725 810.5,275C 669.833,274.333 529.167,274.333 388.5,275C 362.248,278.259 345.081,292.426 337,317.5C 336.055,321.114 335.388,324.781 335,328.5C 334.667,386.833 334.333,445.167 334,503.5C 327.821,529.679 311.654,545.846 285.5,552C 241.167,552.667 196.833,552.667 152.5,552C 124.163,545.325 107.997,527.491 104,498.5C 103.333,433.833 103.333,369.167 104,304.5C 107.279,274.056 123.779,255.556 153.5,249C 189.193,248.946 224.86,248.279 260.5,247C 285.752,240.627 301.252,224.794 307,199.5C 307.333,165.167 307.667,130.833 308,96.5C 314.217,65.4103 333.05,47.7436 364.5,43.5 Z" />
  </g>
  <g>
    <path style="opacity:0.989" fill="currentColor"
      d="M 540.5,472.5 C 582.201,472.034 623.867,472.534 665.5,474C 693.267,480.769 709.767,498.269 715,526.5C 715.667,567.833 715.667,609.167 715,650.5C 709.415,679.42 692.248,697.253 663.5,704C 620.5,704.667 577.5,704.667 534.5,704C 506.789,696.956 489.956,679.456 484,651.5C 483.333,609.5 483.333,567.5 484,525.5C 490.791,494.872 509.625,477.206 540.5,472.5 Z" />
  </g>
  <g>
    <path style="opacity:0.986" fill="currentColor"
      d="M 156.5,644.5 C 199.501,644.333 242.501,644.5 285.5,645C 313.241,650.408 330.074,666.908 336,694.5C 336.031,755.191 336.697,815.858 338,876.5C 345.488,903.322 362.988,918.822 390.5,923C 541.5,923.333 692.5,923.667 843.5,924C 870.679,929.846 887.179,946.346 893,973.5C 893.667,1017.17 893.667,1060.83 893,1104.5C 886.009,1135.16 866.842,1151.99 835.5,1155C 679.5,1155.67 523.5,1155.67 367.5,1155C 338.261,1152.76 319.428,1137.6 311,1109.5C 309.705,1072.87 309.039,1036.2 309,999.5C 304.095,973.927 288.929,958.094 263.5,952C 227.529,950.713 191.529,950.046 155.5,950C 127.437,943.937 110.937,926.771 106,898.5C 105.02,828.803 105.353,759.136 107,689.5C 114.531,664.462 131.031,649.462 156.5,644.5 Z" />
  </g>
</svg>